<svg xmlns="http://www.w3.org/2000/svg" xmlns:xlink="http://www.w3.org/1999/xlink"
  viewBox="-344 -211.5 1491 390.5" width="1491" height="390.5"
  style="background:#fff; font-family:-apple-system,BlinkMacSystemFont,'Segoe UI',Roboto,sans-serif;">
<defs></defs>
<rect x="-344" y="-211.5" width="1491" height="390.5" fill="#fff"/>
<rect x="-76" y="-18" width="152" height="36" rx="8" fill="#EFF0F0" stroke="none"/><text x="0" y="6" text-anchor="middle" font-size="16" font-weight="bold" fill="#333" font-family="-apple-system,BlinkMacSystemFont,sans-serif">集群的安全控制</text><path d="M76,0 C166,0 166,-40 256,-40" fill="none" stroke="#A287E1" stroke-width="2"/><rect x="180" y="-55" width="156.39" height="30" rx="6" fill="#fafafa" stroke="none"/><text x="258.195" y="-35" text-anchor="middle" font-size="13" fill="#333" font-family="-apple-system,BlinkMacSystemFont,sans-serif">API Server的认证授权</text><path d="M336.39,-40 C348.195,-40 348.195,-40 360,-40" fill="none" stroke="#A287E1" stroke-width="2"/><rect x="360" y="-55" width="173.94" height="30" rx="6" fill="#fafafa" stroke="none"/><text x="446.97" y="-35" text-anchor="middle" font-size="13" fill="#333" font-family="-apple-system,BlinkMacSystemFont,sans-serif">对 API server的访问方式</text><path d="M533.94,-40 C536.97,-40 536.97,-80 540,-80" fill="none" stroke="#A287E1" stroke-width="2"/><rect x="540" y="-95" width="515.7099999999998" height="30" rx="6" fill="#fafafa" stroke="none"/><text x="797.8549999999999" y="-75" text-anchor="middle" font-size="13" fill="#333" font-family="-apple-system,BlinkMacSystemFont,sans-serif">1、以证书方式访问的普通用户或进程，包括运维人员及kubectl、kubelets等进程；</text><path d="M533.94,-40 C536.97,-40 536.97,-40 540,-40" fill="none" stroke="#A287E1" stroke-width="2"/><rect x="540" y="-55" width="394.54999999999995" height="30" rx="6" fill="#fafafa" stroke="none"/><text x="737.275" y="-35" text-anchor="middle" font-size="13" fill="#333" font-family="-apple-system,BlinkMacSystemFont,sans-serif">2、以Service Account方式访问的Kubernetes的内部服务进程；</text><path d="M533.94,-40 C536.97,-40 536.97,0 540,0" fill="none" stroke="#A287E1" stroke-width="2"/><rect x="540" y="-15" width="175.76" height="30" rx="6" fill="#fafafa" stroke="none"/><text x="627.88" y="5" text-anchor="middle" font-size="13" fill="#333" font-family="-apple-system,BlinkMacSystemFont,sans-serif">3、以匿名方式访问的进程</text><path d="M76,0 C166,0 166,40 256,40" fill="none" stroke="#6F81DB" stroke-width="2"/><rect x="180" y="25" width="104" height="30" rx="6" fill="#fafafa" stroke="none"/><text x="232" y="45" text-anchor="middle" font-size="13" fill="#333" font-family="-apple-system,BlinkMacSystemFont,sans-serif">准入控制机制</text><path d="M76,0 C166,0 166,80 256,80" fill="none" stroke="#6EC4C4" stroke-width="2"/><rect x="180" y="65" width="183.56000000000003" height="30" rx="6" fill="#fafafa" stroke="none"/><text x="271.78000000000003" y="85" text-anchor="middle" font-size="13" fill="#333" font-family="-apple-system,BlinkMacSystemFont,sans-serif">保护敏感信息的Secret机制</text><path d="M-76,0 C-166,0 -166,0 -256,0" fill="none" stroke="#DFB85D" stroke-width="2"/><rect x="-260" y="-15" width="80" height="30" rx="6" fill="#fafafa" stroke="none"/><text x="-220" y="5" text-anchor="middle" font-size="13" fill="#333" font-family="-apple-system,BlinkMacSystemFont,sans-serif"></text>
</svg>